<?xml version="1.0" encoding="UTF-8"?>
<svg id="Layer_1" data-name="Layer 1" xmlns="http://www.w3.org/2000/svg" xmlns:xlink="http://www.w3.org/1999/xlink" viewBox="0 0 100 100">
  <defs>
    <style>
      .cls-1 {
        fill: url(#linear-gradient-2);
      }

      .cls-2 {
        fill: url(#linear-gradient-17);
      }

      .cls-3 {
        fill: url(#linear-gradient-15);
      }

      .cls-4 {
        fill: url(#linear-gradient-18);
      }

      .cls-5 {
        fill: url(#linear-gradient-14);
      }

      .cls-6 {
        fill: #9e0b4b;
      }

      .cls-7 {
        fill: url(#linear-gradient-6);
      }

      .cls-8 {
        fill: url(#linear-gradient-11);
      }

      .cls-9 {
        fill: url(#linear-gradient-10);
      }

      .cls-10 {
        fill: url(#linear-gradient-16);
      }

      .cls-11 {
        fill: url(#linear-gradient-5);
      }

      .cls-12 {
        fill: url(#linear-gradient-7);
      }

      .cls-13 {
        fill: url(#linear-gradient-9);
      }

      .cls-14 {
        fill: url(#linear-gradient-3);
      }

      .cls-15 {
        fill: url(#linear-gradient);
      }

      .cls-16 {
        fill: url(#linear-gradient-19);
      }

      .cls-17 {
        fill: url(#linear-gradient-4);
      }

      .cls-18 {
        fill: url(#linear-gradient-8);
      }

      .cls-19 {
        fill: url(#linear-gradient-12);
      }

      .cls-20 {
        fill: url(#linear-gradient-13);
      }
    </style>
    <linearGradient id="linear-gradient" x1="39.05" y1="41.61" x2="50.4" y2="41.61" gradientUnits="userSpaceOnUse">
      <stop offset="0" stop-color="#ccc"/>
      <stop offset=".02" stop-color="#d1d1d1"/>
      <stop offset=".1" stop-color="#e5e5e5"/>
      <stop offset=".2" stop-color="#f4f4f4"/>
      <stop offset=".31" stop-color="#fcfcfc"/>
      <stop offset=".5" stop-color="#fff"/>
      <stop offset=".69" stop-color="#fcfcfc"/>
      <stop offset=".8" stop-color="#f4f4f4"/>
      <stop offset=".9" stop-color="#e5e5e5"/>
      <stop offset=".98" stop-color="#d1d1d1"/>
      <stop offset="1" stop-color="#ccc"/>
    </linearGradient>
    <linearGradient id="linear-gradient-2" x1="44.19" y1="10.36" x2="55.81" y2="10.36" xlink:href="#linear-gradient"/>
    <linearGradient id="linear-gradient-3" x1="50.79" y1="13.79" x2="55.81" y2="13.79" xlink:href="#linear-gradient"/>
    <linearGradient id="linear-gradient-4" x1="45.9" y1="14.74" x2="49.55" y2="14.74" xlink:href="#linear-gradient"/>
    <linearGradient id="linear-gradient-5" x1="44.19" y1="22.26" x2="55.81" y2="22.26" xlink:href="#linear-gradient"/>
    <linearGradient id="linear-gradient-6" x1="36.76" y1="42.05" x2="63.24" y2="42.05" xlink:href="#linear-gradient"/>
    <linearGradient id="linear-gradient-7" x1="49.6" y1="41.61" x2="60.95" y2="41.61" xlink:href="#linear-gradient"/>
    <linearGradient id="linear-gradient-8" x1="40.92" y1="40.51" x2="60.95" y2="40.51" xlink:href="#linear-gradient"/>
    <linearGradient id="linear-gradient-9" x1="5" y1="71.09" x2="30.16" y2="71.09" xlink:href="#linear-gradient"/>
    <linearGradient id="linear-gradient-10" x1="31.63" y1="74.23" x2="53.12" y2="74.23" xlink:href="#linear-gradient"/>
    <linearGradient id="linear-gradient-11" x1="52.02" y1="77.9" x2="73.77" y2="77.9" xlink:href="#linear-gradient"/>
    <linearGradient id="linear-gradient-12" x1="74.5" y1="74.25" x2="95" y2="74.25" xlink:href="#linear-gradient"/>
    <linearGradient id="linear-gradient-13" x1="31.7" y1="90.18" x2="35.39" y2="90.18" xlink:href="#linear-gradient"/>
    <linearGradient id="linear-gradient-14" x1="38.19" y1="90.18" x2="42.58" y2="90.18" xlink:href="#linear-gradient"/>
    <linearGradient id="linear-gradient-15" x1="45.38" y1="90.18" x2="46" y2="90.18" xlink:href="#linear-gradient"/>
    <linearGradient id="linear-gradient-16" x1="48.8" y1="90.18" x2="51.73" y2="90.18" xlink:href="#linear-gradient"/>
    <linearGradient id="linear-gradient-17" x1="66.97" y1="90.18" x2="70.52" y2="90.18" xlink:href="#linear-gradient"/>
    <linearGradient id="linear-gradient-18" x1="73.32" y1="90.18" x2="77.7" y2="90.18" xlink:href="#linear-gradient"/>
    <linearGradient id="linear-gradient-19" x1="80.5" y1="90.18" x2="84.64" y2="90.18" xlink:href="#linear-gradient"/>
  </defs>
  <g>
    <g>
      <path class="cls-15" d="M48.08,52.28c-.28,0-.56-.08-.8-.22l-7.49-4.57c-.45-.28-.73-.78-.73-1.31v-12.49c0-.55,.3-1.07,.78-1.34l2.41-1.35c.19-.11,.44-.04,.54,.15,.11,.19,.04,.44-.15,.54l-2.41,1.35c-.23,.13-.38,.38-.38,.64v12.49c0,.26,.14,.5,.35,.63l7.49,4.57c.22,.14,.5,.14,.73,.02l1.39-.75c.19-.1,.44-.03,.54,.16,.1,.19,.03,.44-.16,.54l-1.39,.75c-.23,.12-.48,.18-.73,.18Z"/>
      <path class="cls-1" d="M50.01,13.24c-.61,0-5.82-.17-5.82-2.91s5.22-2.85,5.81-2.86h0c.59,0,5.81,.11,5.81,2.86s-5.21,2.9-5.81,2.91Zm0-4.97c-1.4,0-5.01,.4-5.01,2.06s3.62,2.09,5.02,2.11c1.38-.02,5.01-.44,5.01-2.11s-3.62-2.05-5.01-2.06Z"/>
      <path class="cls-14" d="M51.19,15.4c-.2,0-.37-.15-.4-.35-.02-.22,.13-.42,.35-.44,1.16-.13,3.87-.59,3.87-2.03,0-.22,.18-.4,.4-.4s.4,.18,.4,.4c0,1.49-1.63,2.49-4.58,2.82-.02,0-.03,0-.05,0Z"/>
      <path class="cls-17" d="M49.15,15.43s-.02,0-.04,0c-.81-.07-1.98-.24-2.96-.62-.21-.08-.31-.31-.23-.52,.08-.21,.31-.31,.52-.23,.9,.35,1.99,.5,2.75,.57,.22,.02,.38,.21,.36,.43-.02,.21-.19,.36-.4,.36Z"/>
      <path class="cls-11" d="M50.01,34.57c-2.85-.04-4.56-1.26-5.33-1.99-.31-.29-.49-.71-.49-1.14V10.34c0-.22,.18-.4,.4-.4s.4,.18,.4,.4V31.45c0,.21,.09,.41,.24,.56,.68,.64,2.22,1.73,4.78,1.77,2.55-.04,4.08-1.12,4.77-1.77,.15-.14,.24-.35,.24-.56V10.34c0-.22,.18-.4,.4-.4s.4,.18,.4,.4V31.45c0,.43-.18,.84-.49,1.14-.77,.72-2.48,1.94-5.32,1.99Z"/>
      <path class="cls-7" d="M50,56.53c-.27,0-.54-.07-.77-.21l-11.7-6.79c-.47-.27-.77-.78-.77-1.33v-15.85c0-.54,.29-1.04,.75-1.32l5.82-3.4c.19-.11,.43-.05,.55,.14s.05,.43-.14,.55l-5.82,3.4c-.22,.13-.36,.37-.36,.63v15.85c0,.26,.14,.5,.37,.64l11.7,6.79c.23,.13,.52,.13,.75,0l11.7-6.79c.23-.13,.37-.38,.37-.64v-15.85c0-.26-.14-.5-.36-.63l-5.82-3.4c-.19-.11-.25-.36-.14-.55,.11-.19,.36-.25,.55-.14l5.82,3.4c.47,.28,.75,.78,.75,1.32v15.85c0,.54-.29,1.05-.77,1.33l-11.7,6.79c-.24,.14-.51,.21-.77,.21Z"/>
      <path class="cls-12" d="M51.92,52.28c-.25,0-.5-.06-.73-.18l-1.39-.75c-.13-.07-.21-.2-.21-.35v-14.12c0-.22,.18-.4,.4-.4s.4,.18,.4,.4v13.88l1.18,.64c.23,.12,.51,.12,.73-.02l7.49-4.57c.22-.13,.35-.37,.35-.63v-12.49c0-.27-.14-.51-.38-.64l-2.41-1.35c-.19-.11-.26-.35-.15-.54,.11-.19,.35-.26,.54-.15l2.41,1.35c.48,.27,.78,.78,.78,1.34v12.49c0,.53-.28,1.03-.73,1.31l-7.49,4.57c-.24,.15-.52,.22-.8,.22Z"/>
      <path class="cls-18" d="M54.16,42.79c-1.63,0-3.14-1.05-4.91-2.27-.3-.21-.6-.42-.92-.63-2.8-1.9-6.8,0-6.84,.03-.2,.1-.44,.01-.53-.18-.1-.2-.01-.44,.18-.53,.18-.09,4.45-2.13,7.63,.03,.32,.22,.63,.43,.93,.64,2.55,1.77,4.24,2.94,6.51,1.42,2.8-1.88,2.88-1.91,4.26-2.02h.04c.22-.02,.41,.14,.43,.36,.02,.22-.15,.41-.37,.43h-.04q-1.19,.1-3.87,1.89c-.89,.6-1.72,.85-2.51,.85Z"/>
    </g>
    <g>
      <path class="cls-13" d="M24.12,59.59c1.9,1.04,3.38,2.55,4.44,4.52,1.07,1.97,1.6,4.3,1.6,7s-.53,5.02-1.6,6.98c-1.07,1.96-2.55,3.46-4.44,4.5-1.9,1.04-4.08,1.56-6.56,1.56s-4.66-.52-6.56-1.56c-1.9-1.04-3.37-2.54-4.43-4.5-1.05-1.96-1.58-4.29-1.58-6.98s.53-5.03,1.58-7c1.05-1.97,2.53-3.48,4.43-4.52,1.9-1.04,4.08-1.56,6.56-1.56s4.66,.52,6.56,1.56Zm-.94,21.67c.56-1.04,.85-2.44,.85-4.21,0-2.35-.45-4.93-1.34-7.73-.89-2.8-2.08-5.17-3.55-7.09-1.47-1.92-3.01-2.88-4.63-2.88-1.15,0-2.01,.52-2.57,1.56-.56,1.04-.85,2.43-.85,4.17,0,2.35,.45,4.93,1.36,7.73,.91,2.8,2.09,5.17,3.56,7.11,1.47,1.93,3,2.9,4.59,2.9,1.15,0,2.01-.52,2.57-1.56Z"/>
      <path class="cls-9" d="M51.51,81.69c0,.66,.15,1.16,.44,1.49,.29,.33,.69,.5,1.18,.5v.48h-9.29v-.48h3.78c-.61-.07-1.13-.47-1.54-1.19-.42-.72-.62-1.82-.62-3.29v-8.23c0-1.15-.23-2.04-.68-2.68-.45-.64-1.11-.96-1.97-.96-.22,0-.39,.01-.51,.04-.81,.1-1.51,.55-2.09,1.34-.59,.8-.88,1.67-.88,2.63v10.36c0,.64,.15,1.13,.46,1.47,.31,.34,.69,.51,1.16,.51v.48h-9.29v-.48h3.78c-.61-.07-1.13-.47-1.54-1.19-.42-.72-.62-1.82-.62-3.29v-12.34c0-.66-.15-1.16-.44-1.51-.29-.34-.69-.51-1.18-.51v-.48h4.78c1.13,0,1.89,.39,2.3,1.18,.4,.78,.61,1.63,.61,2.53v1.65c.71-1.74,1.64-3.07,2.77-4,1.14-.93,2.44-1.4,3.91-1.4,3.26,0,5.07,1.85,5.44,5.55l.07,1.47v10.36Z"/>
      <path class="cls-8" d="M73.77,64.35v.48c-.98,.32-2.06,1.54-3.25,3.67-1.19,2.13-2.32,4.64-3.4,7.53l-.48,1.29-2.39,6.21-1.47,3.86c-.47,1.22-1.04,2.21-1.73,2.96-.69,.75-1.59,1.12-2.72,1.12-.86,0-1.6-.18-2.24-.55-.64-.37-1.12-.83-1.45-1.4-.33-.56-.5-1.15-.5-1.76,0-.83,.26-1.53,.77-2.09,.51-.56,1.2-.85,2.06-.85,.66,0,1.23,.25,1.71,.75,.48,.5,.72,1.1,.72,1.78,0,.88-.37,1.63-1.1,2.24-.34,.27-.51,.58-.51,.92,0,.32,.23,.48,.7,.48,1.62,0,2.88-1.24,3.78-3.71l1.21-3.23c-1.42-.47-2.77-2.27-4.04-5.4l-4.78-11.79c-.24-.61-.63-1.1-1.16-1.47-.53-.37-1.02-.55-1.49-.55v-.48h10.14v.48h-4.22c.64,.07,1.29,.42,1.97,1.03,.67,.61,1.24,1.52,1.71,2.72l3.93,10.03,.99-2.57c1.27-3.4,1.91-6.05,1.91-7.93,0-1.74-.53-2.83-1.58-3.27v-.48h6.91Z"/>
      <path class="cls-19" d="M92.17,81.28c.39,.66,.85,1.22,1.38,1.69,.53,.47,1.01,.7,1.45,.7v.48h-9.92v-.48h4.04c-.61-.17-1.27-.57-1.98-1.19-.71-.62-1.38-1.48-2.02-2.55l-2.02-3.45-.48,.73c-.49,.76-.88,1.56-1.16,2.39-.28,.83-.42,1.59-.42,2.28,0,.96,.29,1.56,.88,1.8v.48h-6.39v-.48c.76-.1,1.85-.86,3.27-2.3,1.42-1.43,2.58-2.87,3.49-4.32l.59-.92-1.21-2.09-4.26-7.27c-.34-.59-.8-1.06-1.36-1.41-.56-.35-1.08-.53-1.54-.53v-.48h9.92v.48h-4.04c.64,.05,1.32,.34,2.06,.88,.73,.54,1.42,1.36,2.06,2.46l1.98,3.45,.48-.77c.44-.69,.78-1.39,1.01-2.11,.23-.72,.35-1.38,.35-1.97,0-1.03-.33-1.68-.99-1.95v-.48h6.39v.48c-.78,.1-1.83,.8-3.14,2.09-1.31,1.3-2.41,2.66-3.29,4.08l-.59,.96,1.25,2.09,4.23,7.24Z"/>
    </g>
    <g>
      <g>
        <polygon class="cls-20" points="34.8 91.51 32.33 87.83 31.7 87.83 31.7 92.52 32.29 92.52 32.29 88.84 34.76 92.52 35.39 92.52 35.39 87.83 34.8 87.83 34.8 91.51"/>
        <path class="cls-5" d="M39.99,87.83l-1.8,4.69h.66l.51-1.42h1.96l.55,1.42h.71l-1.92-4.69h-.67Zm-.45,2.76l.51-1.38c.11-.3,.19-.59,.25-.9,.07,.25,.18,.58,.33,.97l.49,1.3h-1.59Z"/>
        <rect class="cls-3" x="45.38" y="87.83" width=".62" height="4.69"/>
        <polygon class="cls-10" points="49.42 87.83 48.8 87.83 48.8 92.52 51.73 92.52 51.73 91.97 49.42 91.97 49.42 87.83"/>
      </g>
      <g>
        <path class="cls-2" d="M69.63,90.03c.22-.11,.38-.25,.49-.43,.11-.18,.16-.37,.16-.57,0-.22-.06-.42-.18-.62-.12-.2-.29-.34-.51-.44-.22-.09-.5-.14-.86-.14h-1.76v4.69h1.79c.3,0,.55-.03,.76-.08,.21-.05,.38-.13,.51-.23,.14-.1,.25-.25,.34-.44s.14-.39,.14-.61c0-.27-.08-.51-.23-.71-.15-.2-.37-.34-.65-.43Zm-2.04-1.64h.94c.34,0,.57,.02,.71,.07,.14,.04,.25,.12,.32,.24,.07,.12,.11,.26,.11,.41,0,.16-.04,.3-.12,.41s-.2,.19-.36,.23c-.12,.04-.32,.05-.59,.05h-1.01v-1.42Zm2.18,3.17c-.06,.11-.14,.2-.24,.26s-.22,.1-.36,.13c-.08,.01-.22,.02-.42,.02h-1.17v-1.61h1.08c.3,0,.53,.03,.69,.08,.16,.05,.28,.14,.37,.27s.13,.28,.13,.46c0,.15-.03,.28-.09,.39Z"/>
        <path class="cls-4" d="M75.12,87.83l-1.8,4.69h.66l.51-1.42h1.96l.55,1.42h.71l-1.92-4.69h-.67Zm-.45,2.76l.51-1.38c.11-.3,.19-.59,.25-.9,.07,.25,.18,.58,.33,.97l.49,1.3h-1.59Z"/>
        <path class="cls-16" d="M83.82,91.24c-.16-.25-.33-.46-.51-.62-.09-.08-.21-.15-.37-.23,.45-.06,.78-.21,1-.43s.32-.51,.32-.84c0-.26-.07-.49-.2-.71s-.3-.36-.52-.45-.54-.13-.95-.13h-2.08v4.69h.62v-2.08h.72c.16,0,.28,0,.35,.02,.1,.02,.19,.07,.28,.12s.2,.16,.32,.31,.27,.36,.45,.65l.62,.98h.78l-.82-1.28Zm-1.36-1.34h-1.33v-1.55h1.48c.35,0,.6,.07,.76,.21s.24,.33,.24,.55c0,.15-.04,.29-.12,.42s-.2,.22-.36,.28-.38,.09-.67,.09Z"/>
      </g>
    </g>
  </g>
  <g>
    <g>
      <path class="cls-6" d="M48.08,52.28c-.28,0-.56-.08-.8-.22l-7.49-4.57c-.45-.28-.73-.78-.73-1.31v-12.49c0-.55,.3-1.07,.78-1.34l2.41-1.35c.19-.11,.44-.04,.54,.15,.11,.19,.04,.44-.15,.54l-2.41,1.35c-.23,.13-.38,.38-.38,.64v12.49c0,.26,.14,.5,.35,.63l7.49,4.57c.22,.14,.5,.14,.73,.02l1.39-.75c.19-.1,.44-.03,.54,.16,.1,.19,.03,.44-.16,.54l-1.39,.75c-.23,.12-.48,.18-.73,.18Z"/>
      <path class="cls-6" d="M50.01,13.24c-.61,0-5.82-.17-5.82-2.91s5.22-2.85,5.81-2.86h0c.59,0,5.81,.11,5.81,2.86s-5.21,2.9-5.81,2.91Zm0-4.97c-1.4,0-5.01,.4-5.01,2.06s3.62,2.09,5.02,2.11c1.38-.02,5.01-.44,5.01-2.11s-3.62-2.05-5.01-2.06Z"/>
      <path class="cls-6" d="M51.19,15.4c-.2,0-.37-.15-.4-.35-.02-.22,.13-.42,.35-.44,1.16-.13,3.87-.59,3.87-2.03,0-.22,.18-.4,.4-.4s.4,.18,.4,.4c0,1.49-1.63,2.49-4.58,2.82-.02,0-.03,0-.05,0Z"/>
      <path class="cls-6" d="M49.15,15.43s-.02,0-.04,0c-.81-.07-1.98-.24-2.96-.62-.21-.08-.31-.31-.23-.52,.08-.21,.31-.31,.52-.23,.9,.35,1.99,.5,2.75,.57,.22,.02,.38,.21,.36,.43-.02,.21-.19,.36-.4,.36Z"/>
      <path class="cls-6" d="M50.01,34.57c-2.85-.04-4.56-1.26-5.33-1.99-.31-.29-.49-.71-.49-1.14V10.34c0-.22,.18-.4,.4-.4s.4,.18,.4,.4V31.45c0,.21,.09,.41,.24,.56,.68,.64,2.22,1.73,4.78,1.77,2.55-.04,4.08-1.12,4.77-1.77,.15-.14,.24-.35,.24-.56V10.34c0-.22,.18-.4,.4-.4s.4,.18,.4,.4V31.45c0,.43-.18,.84-.49,1.14-.77,.72-2.48,1.94-5.32,1.99Z"/>
      <path class="cls-6" d="M50,56.53c-.27,0-.54-.07-.77-.21l-11.7-6.79c-.47-.27-.77-.78-.77-1.33v-15.85c0-.54,.29-1.04,.75-1.32l5.82-3.4c.19-.11,.43-.05,.55,.14s.05,.43-.14,.55l-5.82,3.4c-.22,.13-.36,.37-.36,.63v15.85c0,.26,.14,.5,.37,.64l11.7,6.79c.23,.13,.52,.13,.75,0l11.7-6.79c.23-.13,.37-.38,.37-.64v-15.85c0-.26-.14-.5-.36-.63l-5.82-3.4c-.19-.11-.25-.36-.14-.55,.11-.19,.36-.25,.55-.14l5.82,3.4c.47,.28,.75,.78,.75,1.32v15.85c0,.54-.29,1.05-.77,1.33l-11.7,6.79c-.24,.14-.51,.21-.77,.21Z"/>
      <path class="cls-6" d="M51.92,52.28c-.25,0-.5-.06-.73-.18l-1.39-.75c-.13-.07-.21-.2-.21-.35v-14.12c0-.22,.18-.4,.4-.4s.4,.18,.4,.4v13.88l1.18,.64c.23,.12,.51,.12,.73-.02l7.49-4.57c.22-.13,.35-.37,.35-.63v-12.49c0-.27-.14-.51-.38-.64l-2.41-1.35c-.19-.11-.26-.35-.15-.54,.11-.19,.35-.26,.54-.15l2.41,1.35c.48,.27,.78,.78,.78,1.34v12.49c0,.53-.28,1.03-.73,1.31l-7.49,4.57c-.24,.15-.52,.22-.8,.22Z"/>
      <path class="cls-6" d="M54.16,42.79c-1.63,0-3.14-1.05-4.91-2.27-.3-.21-.6-.42-.92-.63-2.8-1.9-6.8,0-6.84,.03-.2,.1-.44,.01-.53-.18-.1-.2-.01-.44,.18-.53,.18-.09,4.45-2.13,7.63,.03,.32,.22,.63,.43,.93,.64,2.55,1.77,4.24,2.94,6.51,1.42,2.8-1.88,2.88-1.91,4.26-2.02h.04c.22-.02,.41,.14,.43,.36,.02,.22-.15,.41-.37,.43h-.04q-1.19,.1-3.87,1.89c-.89,.6-1.72,.85-2.51,.85Z"/>
    </g>
    <g>
      <path class="cls-6" d="M24.12,59.59c1.9,1.04,3.38,2.55,4.44,4.52,1.07,1.97,1.6,4.3,1.6,7s-.53,5.02-1.6,6.98c-1.07,1.96-2.55,3.46-4.44,4.5-1.9,1.04-4.08,1.56-6.56,1.56s-4.66-.52-6.56-1.56c-1.9-1.04-3.37-2.54-4.43-4.5-1.05-1.96-1.58-4.29-1.58-6.98s.53-5.03,1.58-7c1.05-1.97,2.53-3.48,4.43-4.52,1.9-1.04,4.08-1.56,6.56-1.56s4.66,.52,6.56,1.56Zm-.94,21.67c.56-1.04,.85-2.44,.85-4.21,0-2.35-.45-4.93-1.34-7.73-.89-2.8-2.08-5.17-3.55-7.09-1.47-1.92-3.01-2.88-4.63-2.88-1.15,0-2.01,.52-2.57,1.56-.56,1.04-.85,2.43-.85,4.17,0,2.35,.45,4.93,1.36,7.73,.91,2.8,2.09,5.17,3.56,7.11,1.47,1.93,3,2.9,4.59,2.9,1.15,0,2.01-.52,2.57-1.56Z"/>
      <path class="cls-6" d="M51.51,81.69c0,.66,.15,1.16,.44,1.49,.29,.33,.69,.5,1.18,.5v.48h-9.29v-.48h3.78c-.61-.07-1.13-.47-1.54-1.19-.42-.72-.62-1.82-.62-3.29v-8.23c0-1.15-.23-2.04-.68-2.68-.45-.64-1.11-.96-1.97-.96-.22,0-.39,.01-.51,.04-.81,.1-1.51,.55-2.09,1.34-.59,.8-.88,1.67-.88,2.63v10.36c0,.64,.15,1.13,.46,1.47,.31,.34,.69,.51,1.16,.51v.48h-9.29v-.48h3.78c-.61-.07-1.13-.47-1.54-1.19-.42-.72-.62-1.82-.62-3.29v-12.34c0-.66-.15-1.16-.44-1.51-.29-.34-.69-.51-1.18-.51v-.48h4.78c1.13,0,1.89,.39,2.3,1.18,.4,.78,.61,1.63,.61,2.53v1.65c.71-1.74,1.64-3.07,2.77-4,1.14-.93,2.44-1.4,3.91-1.4,3.26,0,5.07,1.85,5.44,5.55l.07,1.47v10.36Z"/>
      <path class="cls-6" d="M73.77,64.35v.48c-.98,.32-2.06,1.54-3.25,3.67-1.19,2.13-2.32,4.64-3.4,7.53l-.48,1.29-2.39,6.21-1.47,3.86c-.47,1.22-1.04,2.21-1.73,2.96-.69,.75-1.59,1.12-2.72,1.12-.86,0-1.6-.18-2.24-.55-.64-.37-1.12-.83-1.45-1.4-.33-.56-.5-1.15-.5-1.76,0-.83,.26-1.53,.77-2.09,.51-.56,1.2-.85,2.06-.85,.66,0,1.23,.25,1.71,.75,.48,.5,.72,1.1,.72,1.78,0,.88-.37,1.63-1.1,2.24-.34,.27-.51,.58-.51,.92,0,.32,.23,.48,.7,.48,1.62,0,2.88-1.24,3.78-3.71l1.21-3.23c-1.42-.47-2.77-2.27-4.04-5.4l-4.78-11.79c-.24-.61-.63-1.1-1.16-1.47-.53-.37-1.02-.55-1.49-.55v-.48h10.14v.48h-4.22c.64,.07,1.29,.42,1.97,1.03,.67,.61,1.24,1.52,1.71,2.72l3.93,10.03,.99-2.57c1.27-3.4,1.91-6.05,1.91-7.93,0-1.74-.53-2.83-1.58-3.27v-.48h6.91Z"/>
      <path class="cls-6" d="M92.17,81.28c.39,.66,.85,1.22,1.38,1.69,.53,.47,1.01,.7,1.45,.7v.48h-9.92v-.48h4.04c-.61-.17-1.27-.57-1.98-1.19-.71-.62-1.38-1.48-2.02-2.55l-2.02-3.45-.48,.73c-.49,.76-.88,1.56-1.16,2.39-.28,.83-.42,1.59-.42,2.28,0,.96,.29,1.56,.88,1.8v.48h-6.39v-.48c.76-.1,1.85-.86,3.27-2.3,1.42-1.43,2.58-2.87,3.49-4.32l.59-.92-1.21-2.09-4.26-7.27c-.34-.59-.8-1.06-1.36-1.41-.56-.35-1.08-.53-1.54-.53v-.48h9.92v.48h-4.04c.64,.05,1.32,.34,2.06,.88,.73,.54,1.42,1.36,2.06,2.46l1.98,3.45,.48-.77c.44-.69,.78-1.39,1.01-2.11,.23-.72,.35-1.38,.35-1.97,0-1.03-.33-1.68-.99-1.95v-.48h6.39v.48c-.78,.1-1.83,.8-3.14,2.09-1.31,1.3-2.41,2.66-3.29,4.08l-.59,.96,1.25,2.09,4.23,7.24Z"/>
    </g>
    <g>
      <g>
        <polygon class="cls-6" points="34.8 91.51 32.33 87.83 31.7 87.83 31.7 92.52 32.29 92.52 32.29 88.84 34.76 92.52 35.39 92.52 35.39 87.83 34.8 87.83 34.8 91.51"/>
        <path class="cls-6" d="M39.99,87.83l-1.8,4.69h.66l.51-1.42h1.96l.55,1.42h.71l-1.92-4.69h-.67Zm-.45,2.76l.51-1.38c.11-.3,.19-.59,.25-.9,.07,.25,.18,.58,.33,.97l.49,1.3h-1.59Z"/>
        <rect class="cls-6" x="45.38" y="87.83" width=".62" height="4.69"/>
        <polygon class="cls-6" points="49.42 87.83 48.8 87.83 48.8 92.52 51.73 92.52 51.73 91.97 49.42 91.97 49.42 87.83"/>
      </g>
      <g>
        <path class="cls-6" d="M69.63,90.03c.22-.11,.38-.25,.49-.43,.11-.18,.16-.37,.16-.57,0-.22-.06-.42-.18-.62-.12-.2-.29-.34-.51-.44-.22-.09-.5-.14-.86-.14h-1.76v4.69h1.79c.3,0,.55-.03,.76-.08,.21-.05,.38-.13,.51-.23,.14-.1,.25-.25,.34-.44s.14-.39,.14-.61c0-.27-.08-.51-.23-.71-.15-.2-.37-.34-.65-.43Zm-2.04-1.64h.94c.34,0,.57,.02,.71,.07,.14,.04,.25,.12,.32,.24,.07,.12,.11,.26,.11,.41,0,.16-.04,.3-.12,.41s-.2,.19-.36,.23c-.12,.04-.32,.05-.59,.05h-1.01v-1.42Zm2.18,3.17c-.06,.11-.14,.2-.24,.26s-.22,.1-.36,.13c-.08,.01-.22,.02-.42,.02h-1.17v-1.61h1.08c.3,0,.53,.03,.69,.08,.16,.05,.28,.14,.37,.27s.13,.28,.13,.46c0,.15-.03,.28-.09,.39Z"/>
        <path class="cls-6" d="M75.12,87.83l-1.8,4.69h.66l.51-1.42h1.96l.55,1.42h.71l-1.92-4.69h-.67Zm-.45,2.76l.51-1.38c.11-.3,.19-.59,.25-.9,.07,.25,.18,.58,.33,.97l.49,1.3h-1.59Z"/>
        <path class="cls-6" d="M83.82,91.24c-.16-.25-.33-.46-.51-.62-.09-.08-.21-.15-.37-.23,.45-.06,.78-.21,1-.43s.32-.51,.32-.84c0-.26-.07-.49-.2-.71s-.3-.36-.52-.45-.54-.13-.95-.13h-2.08v4.69h.62v-2.08h.72c.16,0,.28,0,.35,.02,.1,.02,.19,.07,.28,.12s.2,.16,.32,.31,.27,.36,.45,.65l.62,.98h.78l-.82-1.28Zm-1.36-1.34h-1.33v-1.55h1.48c.35,0,.6,.07,.76,.21s.24,.33,.24,.55c0,.15-.04,.29-.12,.42s-.2,.22-.36,.28-.38,.09-.67,.09Z"/>
      </g>
    </g>
  </g>
</svg>